<mxfile host="app.diagrams.net" modified="2023-11-21T15:11:21.939Z" agent="Mozilla/5.0 (Windows NT 10.0; Win64; x64) AppleWebKit/537.36 (KHTML, like Gecko) Chrome/119.0.0.0 Safari/537.36" etag="sdfY3jn17jAPsRc8cpNQ" version="22.1.3" type="github">
  <diagram id="C5RBs43oDa-KdzZeNtuy" name="Page-1">
    <mxGraphModel dx="1689" dy="889" grid="1" gridSize="10" guides="1" tooltips="1" connect="1" arrows="1" fold="1" page="1" pageScale="1" pageWidth="827" pageHeight="1169" math="0" shadow="0">
      <root>
        <mxCell id="WIyWlLk6GJQsqaUBKTNV-0" />
        <mxCell id="WIyWlLk6GJQsqaUBKTNV-1" parent="WIyWlLk6GJQsqaUBKTNV-0" />
        <mxCell id="ej-_oAiYleAbexlgmfbg-0" value="School" style="swimlane;fontStyle=2;align=center;verticalAlign=top;childLayout=stackLayout;horizontal=1;startSize=26;horizontalStack=0;resizeParent=1;resizeLast=0;collapsible=1;marginBottom=0;rounded=0;shadow=0;strokeWidth=1;" vertex="1" parent="WIyWlLk6GJQsqaUBKTNV-1">
          <mxGeometry x="60" y="160" width="160" height="120" as="geometry">
            <mxRectangle x="230" y="140" width="160" height="26" as="alternateBounds" />
          </mxGeometry>
        </mxCell>
        <mxCell id="ej-_oAiYleAbexlgmfbg-1" value="-name:String" style="text;align=left;verticalAlign=top;spacingLeft=4;spacingRight=4;overflow=hidden;rotatable=0;points=[[0,0.5],[1,0.5]];portConstraint=eastwest;" vertex="1" parent="ej-_oAiYleAbexlgmfbg-0">
          <mxGeometry y="26" width="160" height="26" as="geometry" />
        </mxCell>
        <mxCell id="ej-_oAiYleAbexlgmfbg-2" value="-address:String" style="text;align=left;verticalAlign=top;spacingLeft=4;spacingRight=4;overflow=hidden;rotatable=0;points=[[0,0.5],[1,0.5]];portConstraint=eastwest;rounded=0;shadow=0;html=0;" vertex="1" parent="ej-_oAiYleAbexlgmfbg-0">
          <mxGeometry y="52" width="160" height="26" as="geometry" />
        </mxCell>
        <mxCell id="ej-_oAiYleAbexlgmfbg-4" value="" style="line;html=1;strokeWidth=1;align=left;verticalAlign=middle;spacingTop=-1;spacingLeft=3;spacingRight=3;rotatable=0;labelPosition=right;points=[];portConstraint=eastwest;" vertex="1" parent="ej-_oAiYleAbexlgmfbg-0">
          <mxGeometry y="78" width="160" height="8" as="geometry" />
        </mxCell>
        <mxCell id="ej-_oAiYleAbexlgmfbg-5" value="+manageDepartment()" style="text;align=left;verticalAlign=top;spacingLeft=4;spacingRight=4;overflow=hidden;rotatable=0;points=[[0,0.5],[1,0.5]];portConstraint=eastwest;" vertex="1" parent="ej-_oAiYleAbexlgmfbg-0">
          <mxGeometry y="86" width="160" height="26" as="geometry" />
        </mxCell>
        <mxCell id="ej-_oAiYleAbexlgmfbg-6" value="Department" style="swimlane;fontStyle=2;align=center;verticalAlign=top;childLayout=stackLayout;horizontal=1;startSize=26;horizontalStack=0;resizeParent=1;resizeLast=0;collapsible=1;marginBottom=0;rounded=0;shadow=0;strokeWidth=1;" vertex="1" parent="WIyWlLk6GJQsqaUBKTNV-1">
          <mxGeometry x="560" y="160" width="160" height="140" as="geometry">
            <mxRectangle x="230" y="140" width="160" height="26" as="alternateBounds" />
          </mxGeometry>
        </mxCell>
        <mxCell id="ej-_oAiYleAbexlgmfbg-7" value="-name:String" style="text;align=left;verticalAlign=top;spacingLeft=4;spacingRight=4;overflow=hidden;rotatable=0;points=[[0,0.5],[1,0.5]];portConstraint=eastwest;" vertex="1" parent="ej-_oAiYleAbexlgmfbg-6">
          <mxGeometry y="26" width="160" height="26" as="geometry" />
        </mxCell>
        <mxCell id="ej-_oAiYleAbexlgmfbg-8" value="-description:String" style="text;align=left;verticalAlign=top;spacingLeft=4;spacingRight=4;overflow=hidden;rotatable=0;points=[[0,0.5],[1,0.5]];portConstraint=eastwest;rounded=0;shadow=0;html=0;" vertex="1" parent="ej-_oAiYleAbexlgmfbg-6">
          <mxGeometry y="52" width="160" height="26" as="geometry" />
        </mxCell>
        <mxCell id="ej-_oAiYleAbexlgmfbg-10" value="" style="line;html=1;strokeWidth=1;align=left;verticalAlign=middle;spacingTop=-1;spacingLeft=3;spacingRight=3;rotatable=0;labelPosition=right;points=[];portConstraint=eastwest;" vertex="1" parent="ej-_oAiYleAbexlgmfbg-6">
          <mxGeometry y="78" width="160" height="8" as="geometry" />
        </mxCell>
        <mxCell id="ej-_oAiYleAbexlgmfbg-11" value="+locateToAnOffice()" style="text;align=left;verticalAlign=top;spacingLeft=4;spacingRight=4;overflow=hidden;rotatable=0;points=[[0,0.5],[1,0.5]];portConstraint=eastwest;" vertex="1" parent="ej-_oAiYleAbexlgmfbg-6">
          <mxGeometry y="86" width="160" height="24" as="geometry" />
        </mxCell>
        <mxCell id="ej-_oAiYleAbexlgmfbg-82" value="+getOrHaveMasterTeacher()" style="text;align=left;verticalAlign=top;spacingLeft=4;spacingRight=4;overflow=hidden;rotatable=0;points=[[0,0.5],[1,0.5]];portConstraint=eastwest;fontSize=10;" vertex="1" parent="ej-_oAiYleAbexlgmfbg-6">
          <mxGeometry y="110" width="160" height="30" as="geometry" />
        </mxCell>
        <mxCell id="ej-_oAiYleAbexlgmfbg-12" value="Office" style="swimlane;fontStyle=2;align=center;verticalAlign=top;childLayout=stackLayout;horizontal=1;startSize=26;horizontalStack=0;resizeParent=1;resizeLast=0;collapsible=1;marginBottom=0;rounded=0;shadow=0;strokeWidth=1;" vertex="1" parent="WIyWlLk6GJQsqaUBKTNV-1">
          <mxGeometry x="1000" y="151" width="160" height="112" as="geometry">
            <mxRectangle x="230" y="140" width="160" height="26" as="alternateBounds" />
          </mxGeometry>
        </mxCell>
        <mxCell id="ej-_oAiYleAbexlgmfbg-13" value="-name:String" style="text;align=left;verticalAlign=top;spacingLeft=4;spacingRight=4;overflow=hidden;rotatable=0;points=[[0,0.5],[1,0.5]];portConstraint=eastwest;" vertex="1" parent="ej-_oAiYleAbexlgmfbg-12">
          <mxGeometry y="26" width="160" height="26" as="geometry" />
        </mxCell>
        <mxCell id="ej-_oAiYleAbexlgmfbg-14" value="-room number:Integer" style="text;align=left;verticalAlign=top;spacingLeft=4;spacingRight=4;overflow=hidden;rotatable=0;points=[[0,0.5],[1,0.5]];portConstraint=eastwest;rounded=0;shadow=0;html=0;" vertex="1" parent="ej-_oAiYleAbexlgmfbg-12">
          <mxGeometry y="52" width="160" height="26" as="geometry" />
        </mxCell>
        <mxCell id="ej-_oAiYleAbexlgmfbg-16" value="" style="line;html=1;strokeWidth=1;align=left;verticalAlign=middle;spacingTop=-1;spacingLeft=3;spacingRight=3;rotatable=0;labelPosition=right;points=[];portConstraint=eastwest;" vertex="1" parent="ej-_oAiYleAbexlgmfbg-12">
          <mxGeometry y="78" width="160" height="8" as="geometry" />
        </mxCell>
        <mxCell id="ej-_oAiYleAbexlgmfbg-17" value="+setToOrActAsFacultyRoom()" style="text;align=left;verticalAlign=top;spacingLeft=4;spacingRight=4;overflow=hidden;rotatable=0;points=[[0,0.5],[1,0.5]];portConstraint=eastwest;fontSize=10;" vertex="1" parent="ej-_oAiYleAbexlgmfbg-12">
          <mxGeometry y="86" width="160" height="26" as="geometry" />
        </mxCell>
        <mxCell id="ej-_oAiYleAbexlgmfbg-18" value="Faculty Room" style="swimlane;fontStyle=2;align=center;verticalAlign=top;childLayout=stackLayout;horizontal=1;startSize=26;horizontalStack=0;resizeParent=1;resizeLast=0;collapsible=1;marginBottom=0;rounded=0;shadow=0;strokeWidth=1;" vertex="1" parent="WIyWlLk6GJQsqaUBKTNV-1">
          <mxGeometry x="1420" y="146" width="160" height="114" as="geometry">
            <mxRectangle x="230" y="140" width="160" height="26" as="alternateBounds" />
          </mxGeometry>
        </mxCell>
        <mxCell id="ej-_oAiYleAbexlgmfbg-19" value="-name:String" style="text;align=left;verticalAlign=top;spacingLeft=4;spacingRight=4;overflow=hidden;rotatable=0;points=[[0,0.5],[1,0.5]];portConstraint=eastwest;" vertex="1" parent="ej-_oAiYleAbexlgmfbg-18">
          <mxGeometry y="26" width="160" height="26" as="geometry" />
        </mxCell>
        <mxCell id="ej-_oAiYleAbexlgmfbg-20" value="-description:Strig" style="text;align=left;verticalAlign=top;spacingLeft=4;spacingRight=4;overflow=hidden;rotatable=0;points=[[0,0.5],[1,0.5]];portConstraint=eastwest;rounded=0;shadow=0;html=0;" vertex="1" parent="ej-_oAiYleAbexlgmfbg-18">
          <mxGeometry y="52" width="160" height="26" as="geometry" />
        </mxCell>
        <mxCell id="ej-_oAiYleAbexlgmfbg-22" value="" style="line;html=1;strokeWidth=1;align=left;verticalAlign=middle;spacingTop=-1;spacingLeft=3;spacingRight=3;rotatable=0;labelPosition=right;points=[];portConstraint=eastwest;" vertex="1" parent="ej-_oAiYleAbexlgmfbg-18">
          <mxGeometry y="78" width="160" height="8" as="geometry" />
        </mxCell>
        <mxCell id="ej-_oAiYleAbexlgmfbg-23" value="+assignToOffice()" style="text;align=left;verticalAlign=top;spacingLeft=4;spacingRight=4;overflow=hidden;rotatable=0;points=[[0,0.5],[1,0.5]];portConstraint=eastwest;" vertex="1" parent="ej-_oAiYleAbexlgmfbg-18">
          <mxGeometry y="86" width="160" height="26" as="geometry" />
        </mxCell>
        <mxCell id="ej-_oAiYleAbexlgmfbg-24" value="Master Teacher" style="swimlane;fontStyle=2;align=center;verticalAlign=top;childLayout=stackLayout;horizontal=1;startSize=26;horizontalStack=0;resizeParent=1;resizeLast=0;collapsible=1;marginBottom=0;rounded=0;shadow=0;strokeWidth=1;" vertex="1" parent="WIyWlLk6GJQsqaUBKTNV-1">
          <mxGeometry x="554" y="490" width="160" height="138" as="geometry">
            <mxRectangle x="230" y="140" width="160" height="26" as="alternateBounds" />
          </mxGeometry>
        </mxCell>
        <mxCell id="ej-_oAiYleAbexlgmfbg-25" value="Name" style="text;align=left;verticalAlign=top;spacingLeft=4;spacingRight=4;overflow=hidden;rotatable=0;points=[[0,0.5],[1,0.5]];portConstraint=eastwest;" vertex="1" parent="ej-_oAiYleAbexlgmfbg-24">
          <mxGeometry y="26" width="160" height="26" as="geometry" />
        </mxCell>
        <mxCell id="ej-_oAiYleAbexlgmfbg-26" value="Phone Number" style="text;align=left;verticalAlign=top;spacingLeft=4;spacingRight=4;overflow=hidden;rotatable=0;points=[[0,0.5],[1,0.5]];portConstraint=eastwest;rounded=0;shadow=0;html=0;" vertex="1" parent="ej-_oAiYleAbexlgmfbg-24">
          <mxGeometry y="52" width="160" height="26" as="geometry" />
        </mxCell>
        <mxCell id="ej-_oAiYleAbexlgmfbg-27" value="Email Address" style="text;align=left;verticalAlign=top;spacingLeft=4;spacingRight=4;overflow=hidden;rotatable=0;points=[[0,0.5],[1,0.5]];portConstraint=eastwest;rounded=0;shadow=0;html=0;" vertex="1" parent="ej-_oAiYleAbexlgmfbg-24">
          <mxGeometry y="78" width="160" height="26" as="geometry" />
        </mxCell>
        <mxCell id="ej-_oAiYleAbexlgmfbg-28" value="" style="line;html=1;strokeWidth=1;align=left;verticalAlign=middle;spacingTop=-1;spacingLeft=3;spacingRight=3;rotatable=0;labelPosition=right;points=[];portConstraint=eastwest;" vertex="1" parent="ej-_oAiYleAbexlgmfbg-24">
          <mxGeometry y="104" width="160" height="8" as="geometry" />
        </mxCell>
        <mxCell id="ej-_oAiYleAbexlgmfbg-29" value="+manageTeachers()" style="text;align=left;verticalAlign=top;spacingLeft=4;spacingRight=4;overflow=hidden;rotatable=0;points=[[0,0.5],[1,0.5]];portConstraint=eastwest;" vertex="1" parent="ej-_oAiYleAbexlgmfbg-24">
          <mxGeometry y="112" width="160" height="26" as="geometry" />
        </mxCell>
        <mxCell id="ej-_oAiYleAbexlgmfbg-43" value="" style="endArrow=none;shadow=0;strokeWidth=1;rounded=0;endFill=0;elbow=vertical;entryX=0.02;entryY=-0.04;entryDx=0;entryDy=0;entryPerimeter=0;" edge="1" parent="WIyWlLk6GJQsqaUBKTNV-1" source="ej-_oAiYleAbexlgmfbg-8">
          <mxGeometry x="0.5" y="41" relative="1" as="geometry">
            <mxPoint x="760" y="228" as="sourcePoint" />
            <mxPoint x="1003.2" y="227.95999999999992" as="targetPoint" />
            <mxPoint x="-40" y="32" as="offset" />
          </mxGeometry>
        </mxCell>
        <mxCell id="ej-_oAiYleAbexlgmfbg-44" value="*" style="resizable=0;align=left;verticalAlign=bottom;labelBackgroundColor=none;fontSize=24;" connectable="0" vertex="1" parent="ej-_oAiYleAbexlgmfbg-43">
          <mxGeometry x="-1" relative="1" as="geometry">
            <mxPoint x="10" as="offset" />
          </mxGeometry>
        </mxCell>
        <mxCell id="ej-_oAiYleAbexlgmfbg-45" value="1..*" style="resizable=0;align=right;verticalAlign=bottom;labelBackgroundColor=none;fontSize=24;" connectable="0" vertex="1" parent="ej-_oAiYleAbexlgmfbg-43">
          <mxGeometry x="1" relative="1" as="geometry">
            <mxPoint x="-7" y="1" as="offset" />
          </mxGeometry>
        </mxCell>
        <mxCell id="ej-_oAiYleAbexlgmfbg-46" value="Located in" style="text;html=1;resizable=0;points=[];;align=center;verticalAlign=bottom;labelBackgroundColor=none;rounded=0;shadow=0;strokeWidth=1;fontSize=24;" vertex="1" connectable="0" parent="ej-_oAiYleAbexlgmfbg-43">
          <mxGeometry x="0.5" y="49" relative="1" as="geometry">
            <mxPoint x="-73" y="40" as="offset" />
          </mxGeometry>
        </mxCell>
        <mxCell id="ej-_oAiYleAbexlgmfbg-49" value="" style="endArrow=none;shadow=0;strokeWidth=1;rounded=0;endFill=0;elbow=vertical;exitX=1;exitY=0.5;exitDx=0;exitDy=0;entryX=0;entryY=0.5;entryDx=0;entryDy=0;" edge="1" parent="WIyWlLk6GJQsqaUBKTNV-1" source="ej-_oAiYleAbexlgmfbg-2" target="ej-_oAiYleAbexlgmfbg-8">
          <mxGeometry x="0.5" y="41" relative="1" as="geometry">
            <mxPoint x="740" y="384" as="sourcePoint" />
            <mxPoint x="1070" y="374" as="targetPoint" />
            <mxPoint x="-40" y="32" as="offset" />
          </mxGeometry>
        </mxCell>
        <mxCell id="ej-_oAiYleAbexlgmfbg-50" value="1" style="resizable=0;align=left;verticalAlign=bottom;labelBackgroundColor=none;fontSize=24;" connectable="0" vertex="1" parent="ej-_oAiYleAbexlgmfbg-49">
          <mxGeometry x="-1" relative="1" as="geometry">
            <mxPoint x="10" as="offset" />
          </mxGeometry>
        </mxCell>
        <mxCell id="ej-_oAiYleAbexlgmfbg-51" value="*" style="resizable=0;align=right;verticalAlign=bottom;labelBackgroundColor=none;fontSize=24;" connectable="0" vertex="1" parent="ej-_oAiYleAbexlgmfbg-49">
          <mxGeometry x="1" relative="1" as="geometry">
            <mxPoint x="-20" y="4" as="offset" />
          </mxGeometry>
        </mxCell>
        <mxCell id="ej-_oAiYleAbexlgmfbg-52" value="Consisting of" style="text;html=1;resizable=0;points=[];;align=center;verticalAlign=bottom;labelBackgroundColor=none;rounded=0;shadow=0;strokeWidth=1;fontSize=24;" vertex="1" connectable="0" parent="ej-_oAiYleAbexlgmfbg-49">
          <mxGeometry x="0.5" y="49" relative="1" as="geometry">
            <mxPoint x="-89" y="33" as="offset" />
          </mxGeometry>
        </mxCell>
        <mxCell id="ej-_oAiYleAbexlgmfbg-53" value="" style="endArrow=block;html=1;rounded=0;entryX=0;entryY=0.692;entryDx=0;entryDy=0;entryPerimeter=0;endSize=18;endFill=1;verticalAlign=bottom;" edge="1" parent="WIyWlLk6GJQsqaUBKTNV-1" source="ej-_oAiYleAbexlgmfbg-14" target="ej-_oAiYleAbexlgmfbg-20">
          <mxGeometry width="50" height="50" relative="1" as="geometry">
            <mxPoint x="950" y="304" as="sourcePoint" />
            <mxPoint x="1000" y="254" as="targetPoint" />
          </mxGeometry>
        </mxCell>
        <mxCell id="ej-_oAiYleAbexlgmfbg-57" value="1" style="edgeLabel;html=1;align=center;verticalAlign=bottom;resizable=0;points=[];fontSize=24;" vertex="1" connectable="0" parent="ej-_oAiYleAbexlgmfbg-53">
          <mxGeometry x="-0.6067" relative="1" as="geometry">
            <mxPoint x="-31" as="offset" />
          </mxGeometry>
        </mxCell>
        <mxCell id="ej-_oAiYleAbexlgmfbg-59" value="Acts as a" style="edgeLabel;html=1;align=center;verticalAlign=bottom;resizable=0;points=[];fontSize=24;" vertex="1" connectable="0" parent="ej-_oAiYleAbexlgmfbg-53">
          <mxGeometry x="-0.6067" relative="1" as="geometry">
            <mxPoint x="79" y="1" as="offset" />
          </mxGeometry>
        </mxCell>
        <mxCell id="ej-_oAiYleAbexlgmfbg-84" value="1" style="edgeLabel;html=1;align=center;verticalAlign=bottom;resizable=0;points=[];fontSize=24;labelPosition=center;verticalLabelPosition=top;" vertex="1" connectable="0" parent="ej-_oAiYleAbexlgmfbg-53">
          <mxGeometry x="0.733" y="1" relative="1" as="geometry">
            <mxPoint x="-5" as="offset" />
          </mxGeometry>
        </mxCell>
        <mxCell id="ej-_oAiYleAbexlgmfbg-54" value="" style="endArrow=diamond;html=1;rounded=0;strokeColor=default;startArrow=none;startFill=0;endFill=0;exitX=0.534;exitY=-0.038;exitDx=0;exitDy=0;strokeOpacity=100;endSize=24;exitPerimeter=0;fontFamily=Helvetica;entryX=0.502;entryY=1.091;entryDx=0;entryDy=0;entryPerimeter=0;" edge="1" parent="WIyWlLk6GJQsqaUBKTNV-1" source="ej-_oAiYleAbexlgmfbg-24" target="ej-_oAiYleAbexlgmfbg-82">
          <mxGeometry width="50" height="50" relative="1" as="geometry">
            <mxPoint x="664.92" y="480" as="sourcePoint" />
            <mxPoint x="620" y="390" as="targetPoint" />
          </mxGeometry>
        </mxCell>
        <mxCell id="ej-_oAiYleAbexlgmfbg-70" value="1" style="edgeLabel;html=1;align=left;verticalAlign=middle;resizable=0;points=[];fontSize=24;labelPosition=right;verticalLabelPosition=middle;" vertex="1" connectable="0" parent="ej-_oAiYleAbexlgmfbg-54">
          <mxGeometry x="0.8517" y="-3" relative="1" as="geometry">
            <mxPoint x="-2" y="25" as="offset" />
          </mxGeometry>
        </mxCell>
        <mxCell id="ej-_oAiYleAbexlgmfbg-73" value="&lt;font style=&quot;font-size: 24px;&quot;&gt;1&lt;/font&gt;" style="edgeLabel;html=1;align=left;verticalAlign=middle;resizable=0;points=[];labelPosition=right;verticalLabelPosition=middle;" vertex="1" connectable="0" parent="ej-_oAiYleAbexlgmfbg-54">
          <mxGeometry x="-0.7312" relative="1" as="geometry">
            <mxPoint as="offset" />
          </mxGeometry>
        </mxCell>
        <mxCell id="ej-_oAiYleAbexlgmfbg-75" value="&lt;font style=&quot;font-size: 24px;&quot;&gt;Has&lt;/font&gt;" style="edgeLabel;html=1;align=left;verticalAlign=middle;resizable=0;points=[];labelPosition=right;verticalLabelPosition=middle;" vertex="1" connectable="0" parent="ej-_oAiYleAbexlgmfbg-54">
          <mxGeometry x="-0.2445" y="1" relative="1" as="geometry">
            <mxPoint y="-15" as="offset" />
          </mxGeometry>
        </mxCell>
        <mxCell id="ej-_oAiYleAbexlgmfbg-61" value="Teacher" style="swimlane;fontStyle=2;align=center;verticalAlign=top;childLayout=stackLayout;horizontal=1;startSize=26;horizontalStack=0;resizeParent=1;resizeLast=0;collapsible=1;marginBottom=0;rounded=0;shadow=0;strokeWidth=1;" vertex="1" parent="WIyWlLk6GJQsqaUBKTNV-1">
          <mxGeometry x="1170" y="490" width="160" height="138" as="geometry">
            <mxRectangle x="230" y="140" width="160" height="26" as="alternateBounds" />
          </mxGeometry>
        </mxCell>
        <mxCell id="ej-_oAiYleAbexlgmfbg-62" value="Name" style="text;align=left;verticalAlign=top;spacingLeft=4;spacingRight=4;overflow=hidden;rotatable=0;points=[[0,0.5],[1,0.5]];portConstraint=eastwest;" vertex="1" parent="ej-_oAiYleAbexlgmfbg-61">
          <mxGeometry y="26" width="160" height="26" as="geometry" />
        </mxCell>
        <mxCell id="ej-_oAiYleAbexlgmfbg-63" value="Phone Number" style="text;align=left;verticalAlign=top;spacingLeft=4;spacingRight=4;overflow=hidden;rotatable=0;points=[[0,0.5],[1,0.5]];portConstraint=eastwest;rounded=0;shadow=0;html=0;" vertex="1" parent="ej-_oAiYleAbexlgmfbg-61">
          <mxGeometry y="52" width="160" height="26" as="geometry" />
        </mxCell>
        <mxCell id="ej-_oAiYleAbexlgmfbg-64" value="Email Address" style="text;align=left;verticalAlign=top;spacingLeft=4;spacingRight=4;overflow=hidden;rotatable=0;points=[[0,0.5],[1,0.5]];portConstraint=eastwest;rounded=0;shadow=0;html=0;" vertex="1" parent="ej-_oAiYleAbexlgmfbg-61">
          <mxGeometry y="78" width="160" height="26" as="geometry" />
        </mxCell>
        <mxCell id="ej-_oAiYleAbexlgmfbg-65" value="" style="line;html=1;strokeWidth=1;align=left;verticalAlign=middle;spacingTop=-1;spacingLeft=3;spacingRight=3;rotatable=0;labelPosition=right;points=[];portConstraint=eastwest;" vertex="1" parent="ej-_oAiYleAbexlgmfbg-61">
          <mxGeometry y="104" width="160" height="8" as="geometry" />
        </mxCell>
        <mxCell id="ej-_oAiYleAbexlgmfbg-66" value="+reportToMasterTeacher()" style="text;align=left;verticalAlign=top;spacingLeft=4;spacingRight=4;overflow=hidden;rotatable=0;points=[[0,0.5],[1,0.5]];portConstraint=eastwest;" vertex="1" parent="ej-_oAiYleAbexlgmfbg-61">
          <mxGeometry y="112" width="160" height="26" as="geometry" />
        </mxCell>
        <mxCell id="ej-_oAiYleAbexlgmfbg-76" value="" style="endArrow=none;shadow=0;strokeWidth=1;rounded=0;endFill=0;elbow=vertical;exitX=1;exitY=0.5;exitDx=0;exitDy=0;entryX=-0.021;entryY=0.687;entryDx=0;entryDy=0;entryPerimeter=0;" edge="1" parent="WIyWlLk6GJQsqaUBKTNV-1" source="ej-_oAiYleAbexlgmfbg-24" target="ej-_oAiYleAbexlgmfbg-63">
          <mxGeometry x="0.5" y="41" relative="1" as="geometry">
            <mxPoint x="720" y="530" as="sourcePoint" />
            <mxPoint x="1060" y="530" as="targetPoint" />
            <mxPoint x="-40" y="32" as="offset" />
          </mxGeometry>
        </mxCell>
        <mxCell id="ej-_oAiYleAbexlgmfbg-77" value="1" style="resizable=0;align=center;verticalAlign=bottom;labelBackgroundColor=none;fontSize=24;labelPosition=center;verticalLabelPosition=top;" connectable="0" vertex="1" parent="ej-_oAiYleAbexlgmfbg-76">
          <mxGeometry x="-1" relative="1" as="geometry">
            <mxPoint x="26" as="offset" />
          </mxGeometry>
        </mxCell>
        <mxCell id="ej-_oAiYleAbexlgmfbg-78" value="*" style="resizable=0;align=center;verticalAlign=bottom;labelBackgroundColor=none;fontSize=24;labelPosition=center;verticalLabelPosition=top;" connectable="0" vertex="1" parent="ej-_oAiYleAbexlgmfbg-76">
          <mxGeometry x="1" relative="1" as="geometry">
            <mxPoint x="-17" as="offset" />
          </mxGeometry>
        </mxCell>
        <mxCell id="ej-_oAiYleAbexlgmfbg-80" value="&lt;font style=&quot;font-size: 24px;&quot;&gt;Managing from the set of&lt;/font&gt;" style="edgeLabel;html=1;align=center;verticalAlign=bottom;resizable=0;points=[];labelPosition=center;verticalLabelPosition=top;" vertex="1" connectable="0" parent="ej-_oAiYleAbexlgmfbg-76">
          <mxGeometry x="-0.1008" relative="1" as="geometry">
            <mxPoint x="32" as="offset" />
          </mxGeometry>
        </mxCell>
      </root>
    </mxGraphModel>
  </diagram>
</mxfile>
